<svg width="17" height="16" viewBox="0 0 17 16" fill="none" xmlns="http://www.w3.org/2000/svg">
<path d="M13.5995 6.5259C13.5755 3.99639 15.6606 2.76429 15.7637 2.70578C15.348 2.113 14.8005 1.62513 14.1644 1.28053C13.5284 0.935923 12.8211 0.744003 12.0984 0.720019C10.556 0.558268 9.06175 1.64585 8.27511 1.64585C7.48847 1.64585 6.26557 0.737271 4.96366 0.764803C4.11868 0.790187 3.29471 1.03463 2.57222 1.47436C1.84973 1.91409 1.25342 2.53409 0.841517 3.27368C-0.931003 6.37105 0.391522 10.8794 2.0919 13.3711C2.94381 14.5894 3.93999 15.9522 5.23846 15.904C6.53694 15.8559 6.99037 15.0884 8.52587 15.0884C10.0614 15.0884 10.4942 15.904 11.8236 15.873C13.153 15.8421 14.0495 14.6479 14.8705 13.4158C15.4933 12.5461 15.9723 11.5816 16.2892 10.5594C15.4961 10.2246 14.8184 9.66389 14.3403 8.9469C13.8622 8.22991 13.6046 7.38816 13.5995 6.5259Z" fill="white"/>
</svg>
