<svg width="20" height="20" viewBox="0 0 20 20" fill="none" xmlns="http://www.w3.org/2000/svg">
<path d="M3.7 8.2H5.5C7.3 8.2 8.2 7.3 8.2 5.5V3.7C8.2 1.9 7.3 1 5.5 1H3.7C1.9 1 1 1.9 1 3.7V5.5C1 7.3 1.9 8.2 3.7 8.2Z" stroke="white" stroke-width="1.5" stroke-miterlimit="10" stroke-linecap="round" stroke-linejoin="round"/>
<path d="M14.5 8.2H16.3C18.1 8.2 19 7.3 19 5.5V3.7C19 1.9 18.1 1 16.3 1H14.5C12.7 1 11.8 1.9 11.8 3.7V5.5C11.8 7.3 12.7 8.2 14.5 8.2Z" stroke="white" stroke-width="1.5" stroke-miterlimit="10" stroke-linecap="round" stroke-linejoin="round"/>
<path d="M14.5 19H16.3C18.1 19 19 18.1 19 16.3V14.5C19 12.7 18.1 11.8 16.3 11.8H14.5C12.7 11.8 11.8 12.7 11.8 14.5V16.3C11.8 18.1 12.7 19 14.5 19Z" stroke="white" stroke-width="1.5" stroke-miterlimit="10" stroke-linecap="round" stroke-linejoin="round"/>
<path d="M3.7 19H5.5C7.3 19 8.2 18.1 8.2 16.3V14.5C8.2 12.7 7.3 11.8 5.5 11.8H3.7C1.9 11.8 1 12.7 1 14.5V16.3C1 18.1 1.9 19 3.7 19Z" stroke="white" stroke-width="1.5" stroke-miterlimit="10" stroke-linecap="round" stroke-linejoin="round"/>
</svg>
