<svg width="16" height="16" viewBox="0 0 16 16" fill="none" xmlns="http://www.w3.org/2000/svg">
<path d="M3.49217 0.255884C2.8662 -0.0900969 2.13124 -0.0820974 1.50928 0.260883L8.79886 6.9855L11.2477 4.53664L3.49217 0.255884Z" fill="white"/>
<path d="M0.780472 0.948242C0.602483 1.23923 0.500488 1.57221 0.500488 1.92519V14.0705C0.500488 14.4125 0.593483 14.7385 0.761474 15.0234L8.09206 7.69286L0.780472 0.948242Z" fill="white"/>
<path d="M14.4944 6.32799L12.1585 5.03906L9.53369 7.66292L12.7505 10.6298L14.4954 9.66681C15.1234 9.31883 15.4994 8.69486 15.4994 7.9969C15.4984 7.29894 15.1234 6.67497 14.4944 6.32799Z" fill="white"/>
<path d="M8.82715 8.37109L1.47656 15.7217C1.79554 15.9037 2.14552 15.9997 2.4975 15.9997C2.83749 15.9997 3.17947 15.9137 3.49245 15.7407L11.829 11.1399L8.82715 8.37109Z" fill="white"/>
</svg>
