<svg width="132" height="37" viewBox="0 0 132 37" fill="none" xmlns="http://www.w3.org/2000/svg">
<path d="M9.54279 2.09014C3.86885 5.14579 0 11.2378 0 18.2546C0 26.4347 5.25824 33.3582 12.5047 35.6789C12.4439 35.6317 12.3836 35.5837 12.3238 35.5349C10.4698 33.9902 9.54279 31.5545 9.54279 28.2276V15.4547H4.84975V8.50382H9.54279V2.09014Z" fill="#FCA314"/>
<path d="M27.0403 33.897C32.2171 30.7019 35.6789 24.8919 35.6789 18.2546C35.6789 8.17284 27.6919 0 17.8395 0C17.7389 0 17.6385 0.000851554 17.5383 0.002548V8.50382H26.345V15.4547H17.5383V26.6235C17.5383 29.4752 19.0254 30.901 21.9996 30.901C23.7764 30.901 25.4566 30.5841 27.0403 29.9504V33.897Z" fill="#BAD643"/>
<path d="M59.8569 11.977H53.9963V27.1836H50.4593V11.977H44.5986V8.85302H59.8569V11.977Z" fill="#121425"/>
<path d="M58.6487 23.1819C58.6487 22.3041 58.8897 21.5382 59.3716 20.8841C59.8708 20.2128 60.5593 19.6965 61.4371 19.335C62.3149 18.9736 63.3218 18.7929 64.4577 18.7929C65.0257 18.7929 65.6023 18.8359 66.1875 18.922C66.7727 19.008 67.2805 19.1457 67.7108 19.335V18.6121C67.7108 17.7515 67.4526 17.0889 66.9362 16.6242C66.4371 16.1595 65.6884 15.9271 64.6901 15.9271C63.95 15.9271 63.2443 16.0562 62.573 16.3144C61.9018 16.5725 61.1961 16.9512 60.456 17.4503L59.3458 15.1784C60.2408 14.5932 61.1531 14.1543 62.0825 13.8617C63.0292 13.5691 64.0188 13.4228 65.0515 13.4228C66.9793 13.4228 68.4767 13.9047 69.5438 14.8686C70.6282 15.8324 71.1704 17.2094 71.1704 18.9994V23.311C71.1704 23.6724 71.2306 23.9306 71.3511 24.0855C71.4888 24.2404 71.7039 24.3351 71.9965 24.3695V27.1836C71.6867 27.2353 71.4027 27.2783 71.1445 27.3127C70.9036 27.3471 70.697 27.3644 70.5249 27.3644C69.8364 27.3644 69.3115 27.2095 68.95 26.8996C68.6058 26.5898 68.3906 26.2112 68.3046 25.7637L68.2271 25.0666C67.6419 25.8239 66.9104 26.4091 66.0326 26.8222C65.1548 27.2353 64.2598 27.4418 63.3476 27.4418C62.4526 27.4418 61.6436 27.2611 60.9207 26.8996C60.215 26.521 59.6556 26.0132 59.2425 25.3764C58.8467 24.7223 58.6487 23.9908 58.6487 23.1819ZM67.0653 23.879C67.2547 23.6724 67.4096 23.4659 67.53 23.2593C67.6505 23.0528 67.7108 22.8635 67.7108 22.6913V21.323C67.2977 21.1509 66.8502 21.0218 66.3682 20.9357C65.8863 20.8325 65.4302 20.7808 64.9999 20.7808C64.1049 20.7808 63.3648 20.9788 62.7796 21.3746C62.2116 21.7533 61.9276 22.261 61.9276 22.8979C61.9276 23.2421 62.0223 23.5691 62.2116 23.879C62.4009 24.1888 62.6763 24.4383 63.0378 24.6277C63.3992 24.817 63.8295 24.9117 64.3286 24.9117C64.845 24.9117 65.3527 24.817 65.8519 24.6277C66.351 24.4211 66.7555 24.1716 67.0653 23.879Z" fill="#121425"/>
<path d="M79.5151 27.4418C78.6545 27.4418 77.8628 27.2611 77.1399 26.8996C76.417 26.521 75.7888 26.0132 75.2552 25.3764C74.7216 24.7396 74.3086 23.9908 74.016 23.1302C73.7406 22.2697 73.6029 21.3574 73.6029 20.3936C73.6029 19.4125 73.7578 18.5003 74.0676 17.6569C74.3946 16.8135 74.8421 16.0734 75.4101 15.4366C75.9781 14.7997 76.6494 14.3092 77.4239 13.9649C78.1984 13.6035 79.0332 13.4228 79.9282 13.4228C80.9609 13.4228 81.8732 13.6637 82.6649 14.1457C83.4566 14.6104 84.1021 15.23 84.6012 16.0045V13.6551H87.6219V32.6828H84.1623V24.8084C83.1296 26.564 81.5806 27.4418 79.5151 27.4418ZM80.806 24.4986C81.3052 24.4986 81.7527 24.4039 82.1485 24.2146C82.5616 24.0253 82.9317 23.7671 83.2587 23.4401C83.6029 23.0958 83.9042 22.7086 84.1623 22.2783V19.0769C84.0763 18.6982 83.9128 18.3454 83.6718 18.0183C83.448 17.6913 83.1726 17.4073 82.8456 17.1663C82.5358 16.9082 82.2002 16.7102 81.8387 16.5725C81.4773 16.4348 81.1158 16.366 80.7544 16.366C80.2208 16.366 79.7303 16.4779 79.2828 16.7016C78.8525 16.9254 78.4738 17.2352 78.1468 17.6311C77.8198 18.0097 77.5702 18.4486 77.3981 18.9478C77.226 19.4297 77.1399 19.9461 77.1399 20.4968C77.1399 21.2369 77.2948 21.9082 77.6046 22.5106C77.9144 23.113 78.3447 23.595 78.8955 23.9564C79.4463 24.3179 80.0831 24.4986 80.806 24.4986Z" fill="#121425"/>
<path d="M95.7491 27.4418C94.5959 27.4418 93.4943 27.2525 92.4444 26.8738C91.3945 26.4952 90.4908 25.9358 89.7335 25.1957L90.9728 22.9495C91.7817 23.6036 92.5735 24.0855 93.348 24.3953C94.1398 24.7051 94.8971 24.86 95.62 24.86C96.2912 24.86 96.8248 24.7396 97.2207 24.4986C97.6338 24.2576 97.8403 23.8962 97.8403 23.4142C97.8403 23.0872 97.7284 22.8376 97.5047 22.6655C97.2809 22.4762 96.9539 22.3127 96.5236 22.175C96.1105 22.0373 95.6028 21.8824 95.0003 21.7103C94.0021 21.3832 93.1673 21.0648 92.496 20.755C91.8248 20.4452 91.317 20.0579 90.9728 19.5932C90.6457 19.1113 90.4822 18.5003 90.4822 17.7602C90.4822 16.8651 90.706 16.0992 91.1535 15.4624C91.6182 14.8083 92.2551 14.3006 93.064 13.9391C93.8902 13.5777 94.854 13.397 95.9556 13.397C96.9195 13.397 97.8317 13.5519 98.6923 13.8617C99.5529 14.1543 100.336 14.6362 101.042 15.3075L99.6475 17.502C98.9591 16.9684 98.305 16.5811 97.6854 16.3402C97.0658 16.082 96.4375 15.9529 95.8007 15.9529C95.4392 15.9529 95.095 15.9959 94.768 16.082C94.4582 16.1681 94.2 16.3144 93.9935 16.5209C93.8041 16.7102 93.7095 16.9856 93.7095 17.3471C93.7095 17.6741 93.7955 17.9323 93.9676 18.1216C94.157 18.2937 94.4324 18.4486 94.7938 18.5863C95.1725 18.724 95.6286 18.8789 96.1621 19.051C97.2465 19.3609 98.1587 19.6793 98.8988 20.0063C99.6561 20.3333 100.224 20.7378 100.603 21.2197C100.981 21.6845 101.171 22.3299 101.171 23.1561C101.171 24.4986 100.68 25.5485 99.6992 26.3058C98.7181 27.0632 97.4014 27.4418 95.7491 27.4418Z" fill="#121425"/>
<path d="M103.524 27.1836V13.6551H106.983V27.1836H103.524ZM103.524 11.7704V8.33667H106.983V11.7704H103.524Z" fill="#121425"/>
<path d="M131.12 27.1836H127.66V19.5932C127.66 18.5261 127.471 17.7429 127.092 17.2438C126.731 16.7274 126.223 16.4693 125.569 16.4693C124.898 16.4693 124.252 16.736 123.633 17.2696C123.03 17.786 122.6 18.4658 122.342 19.3092V27.1836H118.882V19.5932C118.882 18.5089 118.693 17.7171 118.314 17.218C117.953 16.7188 117.445 16.4693 116.791 16.4693C116.12 16.4693 115.474 16.7274 114.855 17.2438C114.252 17.7602 113.822 18.44 113.564 19.2834V27.1836H110.104V13.6551H113.228V16.1595C113.745 15.2816 114.433 14.6104 115.294 14.1457C116.154 13.6637 117.144 13.4228 118.263 13.4228C119.382 13.4228 120.251 13.6982 120.87 14.2489C121.507 14.7997 121.912 15.4796 122.084 16.2885C122.635 15.3591 123.332 14.6534 124.175 14.1715C125.036 13.6723 125.999 13.4228 127.067 13.4228C127.91 13.4228 128.59 13.5777 129.106 13.8875C129.64 14.1801 130.053 14.5846 130.345 15.1009C130.638 15.6001 130.836 16.1681 130.939 16.8049C131.06 17.4417 131.12 18.0872 131.12 18.7412V27.1836Z" fill="#121425"/>
</svg>
