<svg width="17" height="21" viewBox="0 0 17 21" fill="none" xmlns="http://www.w3.org/2000/svg">
<path d="M13.5995 11.5259C13.5755 8.99639 15.6606 7.76429 15.7637 7.70578C15.348 7.113 14.8005 6.62513 14.1644 6.28053C13.5284 5.93592 12.8211 5.744 12.0984 5.72002C10.556 5.55827 9.06175 6.64585 8.27511 6.64585C7.48847 6.64585 6.26557 5.73727 4.96366 5.7648C4.11868 5.79019 3.29471 6.03463 2.57222 6.47436C1.84973 6.91409 1.25342 7.53409 0.841517 8.27368C-0.931003 11.3711 0.391522 15.8794 2.0919 18.3711C2.94381 19.5894 3.93999 20.9522 5.23846 20.904C6.53694 20.8559 6.99037 20.0884 8.52587 20.0884C10.0614 20.0884 10.4942 20.904 11.8236 20.873C13.153 20.8421 14.0495 19.6479 14.8705 18.4158C15.4933 17.5461 15.9723 16.5816 16.2892 15.5594C15.4961 15.2246 14.8184 14.6639 14.3403 13.9469C13.8622 13.2299 13.6046 12.3882 13.5995 11.5259Z" fill="white"/>
<path d="M11.0912 4.0849C11.8397 3.19027 12.2095 2.03804 12.1217 0.874023C10.9838 0.992553 9.93242 1.53701 9.17785 2.39859C8.54579 3.13852 7.97899 4.35338 8.1267 5.49596C9.23281 5.57856 10.3767 4.92808 11.0912 4.0849Z" fill="white"/>
</svg>
