<svg width="20" height="18" viewBox="0 0 20 18" fill="none" xmlns="http://www.w3.org/2000/svg">
<path d="M17.4221 9.57793L10.0001 16.9999L2.50006 9.57193C2.00536 9.09055 1.6157 8.51195 1.3556 7.87257C1.09551 7.23319 0.970619 6.54688 0.988794 5.85687C1.00697 5.16685 1.16782 4.48807 1.46121 3.86327C1.75461 3.23847 2.17419 2.68119 2.69354 2.22651C3.21289 1.77184 3.82076 1.42962 4.47887 1.22141C5.13697 1.01321 5.83106 0.943517 6.51743 1.01673C7.20379 1.08995 7.86756 1.30449 8.46693 1.64684C9.06631 1.98919 9.58831 2.45193 10.0001 3.00593C10.4136 2.45595 10.9362 1.99725 11.5352 1.65854C12.1341 1.31982 12.7966 1.10838 13.481 1.03745C14.1654 0.966523 14.8571 1.03763 15.5128 1.24632C16.1685 1.45502 16.7741 1.79681 17.2916 2.2503C17.8091 2.70379 18.2275 3.25922 18.5205 3.88182C18.8135 4.50443 18.9748 5.18082 18.9944 5.86864C19.0139 6.55647 18.8913 7.24093 18.6342 7.87918C18.3771 8.51744 17.913 9.09576 17.4221 9.57793Z" stroke="#272A39" stroke-width="1.5" stroke-linecap="round" stroke-linejoin="round"/>
</svg>
